<svg xmlns="http://www.w3.org/2000/svg" version="1.1" xmlns:xlink="http://www.w3.org/1999/xlink" width="1000" height="1000"><g clip-path="url(#SvgjsClipPath1086)"><rect width="1000" height="1000" fill="#000000"></rect><g transform="matrix(1.6216216216216217,0,0,1.6216216216216217,50,94.59459459459458)"><svg xmlns="http://www.w3.org/2000/svg" version="1.1" xmlns:xlink="http://www.w3.org/1999/xlink" width="555" height="500"><svg width="555" height="500" viewBox="0 0 555 500" fill="none" xmlns="http://www.w3.org/2000/svg">
<circle cx="277" cy="250" r="250" fill="black"></circle>
<path d="M86.5131 257.381V244.17C98.3739 244.17 106.648 241.685 111.336 236.713C116.094 231.741 118.473 223.432 118.473 211.784V177.693C118.473 167.892 119.397 159.405 121.243 152.232C123.161 145.058 126.25 139.128 130.512 134.44C134.773 129.753 140.455 126.273 147.557 124C154.659 121.727 163.431 120.591 173.871 120.591V141.472C165.632 141.472 159.134 142.75 154.375 145.307C149.688 147.864 146.35 151.841 144.361 157.239C142.444 162.565 141.485 169.384 141.485 177.693V220.307C141.485 225.847 140.739 230.889 139.248 235.435C137.827 239.98 135.164 243.886 131.257 247.153C127.351 250.42 121.776 252.942 114.532 254.717C107.358 256.493 98.0188 257.381 86.5131 257.381ZM173.871 393.318C163.431 393.318 154.659 392.182 147.557 389.909C140.455 387.636 134.773 384.156 130.512 379.469C126.25 374.781 123.161 368.851 121.243 361.678C119.397 354.504 118.473 346.017 118.473 336.216V302.125C118.473 290.477 116.094 282.168 111.336 277.196C106.648 272.224 98.3739 269.739 86.5131 269.739V256.528C98.0188 256.528 107.358 257.416 114.532 259.192C121.776 260.967 127.351 263.489 131.257 266.756C135.164 270.023 137.827 273.929 139.248 278.474C140.739 283.02 141.485 288.062 141.485 293.602V336.216C141.485 344.526 142.444 351.344 144.361 356.67C146.35 361.997 149.688 365.939 154.375 368.496C159.134 371.124 165.632 372.438 173.871 372.438V393.318ZM86.5131 269.739V244.17H111.655V269.739H86.5131ZM468.46 256.528V269.739C456.599 269.739 448.29 272.224 443.531 277.196C438.844 282.168 436.5 290.477 436.5 302.125V336.216C436.5 346.017 435.541 354.504 433.624 361.678C431.777 368.851 428.723 374.781 424.462 379.469C420.2 384.156 414.518 387.636 407.416 389.909C400.314 392.182 391.543 393.318 381.102 393.318V372.438C389.341 372.438 395.804 371.124 400.491 368.496C405.25 365.939 408.588 361.997 410.506 356.67C412.494 351.344 413.489 344.526 413.489 336.216V293.602C413.489 288.062 414.199 283.02 415.619 278.474C417.111 273.929 419.81 270.023 423.716 266.756C427.622 263.489 433.162 260.967 440.335 259.192C447.58 257.416 456.955 256.528 468.46 256.528ZM381.102 120.591C391.543 120.591 400.314 121.727 407.416 124C414.518 126.273 420.2 129.753 424.462 134.44C428.723 139.128 431.777 145.058 433.624 152.232C435.541 159.405 436.5 167.892 436.5 177.693V211.784C436.5 223.432 438.844 231.741 443.531 236.713C448.29 241.685 456.599 244.17 468.46 244.17V257.381C456.955 257.381 447.58 256.493 440.335 254.717C433.162 252.942 427.622 250.42 423.716 247.153C419.81 243.886 417.111 239.98 415.619 235.435C414.199 230.889 413.489 225.847 413.489 220.307V177.693C413.489 169.384 412.494 162.565 410.506 157.239C408.588 151.841 405.25 147.864 400.491 145.307C395.804 142.75 389.341 141.472 381.102 141.472V120.591ZM468.46 244.17V269.739H443.318V244.17H468.46Z" fill="white"></path>
<path d="M181.316 307.529C176.171 304.413 176.176 296.947 181.325 293.838L268.283 241.335C273.032 238.468 278.975 238.456 283.736 241.303L371.593 293.853C376.768 296.948 376.788 304.438 371.631 307.562L284.271 360.47C279.494 363.363 273.506 363.363 268.729 360.47L181.316 307.529Z" fill="white"></path>
<path d="M181.316 266.529C176.171 263.413 176.176 255.947 181.325 252.838L268.283 200.335C273.032 197.468 278.975 197.456 283.736 200.303L371.593 252.853C376.768 255.948 376.788 263.438 371.631 266.562L284.271 319.47C279.494 322.363 273.506 322.363 268.729 319.47L181.316 266.529Z" fill="black"></path>
<path d="M181.316 256.529C176.171 253.413 176.176 245.947 181.325 242.838L268.283 190.335C273.032 187.468 278.975 187.456 283.736 190.303L371.593 242.853C376.768 245.948 376.788 253.438 371.631 256.562L284.271 309.47C279.494 312.363 273.506 312.363 268.729 309.47L181.316 256.529Z" fill="white"></path>
<path d="M181.316 215.529C176.171 212.413 176.176 204.947 181.325 201.838L268.283 149.335C273.032 146.468 278.975 146.456 283.736 149.303L371.593 201.853C376.768 204.948 376.788 212.438 371.631 215.562L284.271 268.47C279.494 271.363 273.506 271.363 268.729 268.47L181.316 215.529Z" fill="black"></path>
<path d="M181.316 205.529C176.171 202.413 176.176 194.947 181.325 191.838L268.283 139.335C273.032 136.468 278.975 136.456 283.736 139.303L371.593 191.853C376.768 194.948 376.788 202.438 371.631 205.562L284.271 258.47C279.494 261.363 273.506 261.363 268.729 258.47L181.316 205.529Z" fill="white"></path>
</svg></svg></g></g><defs><clipPath id="SvgjsClipPath1086"><rect width="1000" height="1000" x="0" y="0" rx="500" ry="500"></rect></clipPath></defs></svg>