<svg width="555" height="405" viewBox="0 0 555 405" fill="none" xmlns="http://www.w3.org/2000/svg">
<path d="M86.5131 199.381V186.17C98.3739 186.17 106.648 183.685 111.336 178.713C116.094 173.741 118.473 165.432 118.473 153.784V119.693C118.473 109.892 119.397 101.405 121.243 94.2315C123.161 87.0582 126.25 81.1278 130.512 76.4403C134.773 71.7528 140.455 68.2727 147.557 66C154.659 63.7273 163.431 62.5909 173.871 62.5909V83.4716C165.632 83.4716 159.134 84.75 154.375 87.3068C149.688 89.8636 146.35 93.8409 144.361 99.2386C142.444 104.565 141.485 111.384 141.485 119.693V162.307C141.485 167.847 140.739 172.889 139.248 177.435C137.827 181.98 135.164 185.886 131.257 189.153C127.351 192.42 121.776 194.942 114.532 196.717C107.358 198.493 98.0188 199.381 86.5131 199.381ZM173.871 335.318C163.431 335.318 154.659 334.182 147.557 331.909C140.455 329.636 134.773 326.156 130.512 321.469C126.25 316.781 123.161 310.851 121.243 303.678C119.397 296.504 118.473 288.017 118.473 278.216V244.125C118.473 232.477 116.094 224.168 111.336 219.196C106.648 214.224 98.3739 211.739 86.5131 211.739V198.528C98.0188 198.528 107.358 199.416 114.532 201.192C121.776 202.967 127.351 205.489 131.257 208.756C135.164 212.023 137.827 215.929 139.248 220.474C140.739 225.02 141.485 230.062 141.485 235.602V278.216C141.485 286.526 142.444 293.344 144.361 298.67C146.35 303.997 149.688 307.939 154.375 310.496C159.134 313.124 165.632 314.438 173.871 314.438V335.318ZM86.5131 211.739V186.17H111.655V211.739H86.5131ZM468.46 198.528V211.739C456.599 211.739 448.29 214.224 443.531 219.196C438.844 224.168 436.5 232.477 436.5 244.125V278.216C436.5 288.017 435.541 296.504 433.624 303.678C431.777 310.851 428.723 316.781 424.462 321.469C420.2 326.156 414.518 329.636 407.416 331.909C400.314 334.182 391.543 335.318 381.102 335.318V314.438C389.341 314.438 395.804 313.124 400.491 310.496C405.25 307.939 408.588 303.997 410.506 298.67C412.494 293.344 413.489 286.526 413.489 278.216V235.602C413.489 230.062 414.199 225.02 415.619 220.474C417.111 215.929 419.81 212.023 423.716 208.756C427.622 205.489 433.162 202.967 440.335 201.192C447.58 199.416 456.955 198.528 468.46 198.528ZM381.102 62.5909C391.543 62.5909 400.314 63.7273 407.416 66C414.518 68.2727 420.2 71.7528 424.462 76.4403C428.723 81.1278 431.777 87.0582 433.624 94.2315C435.541 101.405 436.5 109.892 436.5 119.693V153.784C436.5 165.432 438.844 173.741 443.531 178.713C448.29 183.685 456.599 186.17 468.46 186.17V199.381C456.955 199.381 447.58 198.493 440.335 196.717C433.162 194.942 427.622 192.42 423.716 189.153C419.81 185.886 417.111 181.98 415.619 177.435C414.199 172.889 413.489 167.847 413.489 162.307V119.693C413.489 111.384 412.494 104.565 410.506 99.2386C408.588 93.8409 405.25 89.8636 400.491 87.3068C395.804 84.75 389.341 83.4716 381.102 83.4716V62.5909ZM468.46 186.17V211.739H443.318V186.17H468.46Z" fill="white"/>
<path d="M268.729 261.47C273.505 264.362 279.494 264.362 284.27 261.47L348.939 222.303L371.593 235.854C376.767 238.949 376.788 246.438 371.63 249.562L284.27 302.47C279.494 305.362 273.505 305.362 268.729 302.47L181.316 249.529C176.171 246.413 176.176 238.947 181.326 235.838L203.9 222.207L268.729 261.47Z" fill="white"/>
<path d="M268.729 210.47C273.505 213.362 279.494 213.362 284.27 210.47L348.939 171.303L371.593 184.854C376.767 187.949 376.788 195.438 371.63 198.562L284.27 251.47C279.494 254.362 273.505 254.362 268.729 251.47L181.316 198.529C176.171 195.413 176.176 187.947 181.326 184.838L203.9 171.207L268.729 210.47Z" fill="white"/>
<path d="M181.316 147.529C176.171 144.413 176.176 136.947 181.325 133.838L268.283 81.335C273.032 78.4678 278.975 78.4555 283.736 81.3029L371.593 133.853C376.768 136.948 376.788 144.438 371.631 147.561L284.271 200.47C279.494 203.362 273.506 203.362 268.729 200.47L181.316 147.529Z" fill="white"/>
</svg>
